<svg xmlns="http://www.w3.org/2000/svg" xmlns:xlink="http://www.w3.org/1999/xlink" width="500" zoomAndPan="magnify" viewBox="0 0 375 374.999991" height="500" preserveAspectRatio="xMidYMid meet" version="1.0"><defs><clipPath id="fbc2460f0c"><path d="M 58 23.128906 L 317 23.128906 L 317 351.628906 L 58 351.628906 Z M 58 23.128906 " clip-rule="nonzero"/></clipPath><clipPath id="c40a0460f8"><path d="M 58 23.128906 L 317.355469 23.128906 L 317.355469 351.628906 L 58 351.628906 Z M 58 23.128906 " clip-rule="nonzero"/></clipPath></defs><g clip-path="url(#fbc2460f0c)"><path fill="#5271ff" d="M 119.734375 261.167969 L 123.046875 247.390625 C 133.195312 201.804688 138.757812 152.984375 149.929688 119.835938 L 150.832031 117.332031 L 149.25 115.894531 C 139.429688 106.074219 133.355469 92.515625 133.355469 77.554688 C 133.355469 47.628906 157.664062 23.324219 187.585938 23.324219 C 217.511719 23.324219 241.820312 47.628906 241.820312 77.554688 C 241.820312 92.515625 235.742188 106.074219 225.925781 115.894531 L 224.339844 117.332031 L 225.242188 119.835938 C 236.417969 152.988281 241.976562 201.808594 252.128906 247.394531 L 255.4375 261.167969 L 259.863281 262.1875 C 294.269531 271 316.910156 285.921875 316.910156 302.828125 C 316.910156 329.875 258.945312 351.84375 187.585938 351.84375 C 116.226562 351.84375 58.261719 329.875 58.261719 302.828125 C 58.261719 285.921875 80.90625 271 115.308594 262.1875 Z M 119.734375 261.167969 " fill-opacity="1" fill-rule="evenodd"/></g><g clip-path="url(#c40a0460f8)"><path stroke-linecap="round" transform="matrix(2.723566, 0, 0, 2.723566, 36.203996, 14.687414)" fill="none" stroke-linejoin="round" d="M 30.669492 90.499213 L 31.885729 85.440644 C 35.611887 68.70305 37.654247 50.777905 41.756176 38.606934 L 42.087486 37.687586 L 41.506618 37.159785 C 37.900936 33.554103 35.670691 28.575852 35.670691 23.082708 C 35.670691 12.094987 44.595974 3.171139 55.582261 3.171139 C 66.569982 3.171139 75.495265 12.094987 75.495265 23.082708 C 75.495265 28.575852 73.263586 33.554103 69.659338 37.159785 L 69.077036 37.687586 L 69.408345 38.606934 C 73.511709 50.779339 75.552634 68.704484 79.280227 85.442078 L 80.495029 90.499213 L 82.120025 90.87355 C 94.75282 94.109198 103.065682 99.587999 103.065682 105.795394 C 103.065682 115.72608 81.782978 123.792252 55.582261 123.792252 C 29.381544 123.792252 8.09884 115.72608 8.09884 105.795394 C 8.09884 99.587999 16.413136 94.109198 29.044497 90.87355 Z M 30.669492 90.499213 " stroke="#00bad6" stroke-width="0.1" stroke-opacity="1" stroke-miterlimit="4"/></g></svg>